 <svg width="221" height="41" viewBox="0 0 221 41" fill="none" xmlns="http://www.w3.org/2000/svg">
        <path d="M36.8 21.25C36.3667 21.25 35.9167 21.175 35.45 21.025C35 20.875 34.5583 20.6583 34.125 20.375C33.225 19.7917 32.775 18.8083 32.775 17.425V11.775C32.775 11.075 32.8917 10.475 33.125 9.975C33.375 9.475 33.7083 9.08333 34.125 8.8C34.5583 8.53333 35 8.325 35.45 8.175C35.9 8.025 36.3417 7.95 36.775 7.95H40.975C41.3917 7.95 41.825 8.04167 42.275 8.225C42.725 8.40833 43.1417 8.64167 43.525 8.925C43.9083 9.24167 44.2167 9.65833 44.45 10.175C44.6833 10.6917 44.8 11.275 44.8 11.925V22.525C44.8 23.225 44.6833 23.8167 44.45 24.3C44.2333 24.8 43.925 25.2167 43.525 25.55C43.1417 25.8667 42.725 26.1083 42.275 26.275C41.8417 26.4583 41.4083 26.55 40.975 26.55H36.775C35.8917 26.55 35 26.2917 34.1 25.775C33.6333 25.5083 33.2917 25.1667 33.075 24.75C32.875 24.3333 32.775 23.85 32.775 23.3V23C32.775 22.6667 32.8833 22.4 33.1 22.2C33.3167 22 33.6583 21.9 34.125 21.9C35.0583 22 35.525 22.3667 35.525 23V23.275C35.525 23.4583 35.65 23.6583 35.9 23.875C36.1667 24.0917 36.6083 24.2 37.225 24.2H40.35C40.9667 24.2 41.4 24.025 41.65 23.675C41.9167 23.325 42.05 22.9333 42.05 22.5V11.95C42.05 11.5333 41.9167 11.1583 41.65 10.825C41.4 10.475 40.9667 10.3 40.35 10.3H37.225C36.6083 10.3 36.1667 10.475 35.9 10.825C35.65 11.1583 35.525 11.5333 35.525 11.95V17.225C35.525 17.6417 35.65 18.0333 35.9 18.4C36.1667 18.75 36.6083 18.925 37.225 18.925H39.825C40.425 18.925 40.725 19.3083 40.725 20.075C40.725 20.425 40.65 20.7083 40.5 20.925C40.3667 21.1417 40.1417 21.25 39.825 21.25H36.8ZM51.9309 23C51.4142 23 50.9225 22.9333 50.4559 22.8C49.9892 22.65 49.5392 22.4417 49.1059 22.175V22.2C48.2892 21.6833 47.8809 20.7333 47.8809 19.35V18.125C47.8809 17.4417 47.9975 16.85 48.2309 16.35C48.4809 15.8333 48.8225 15.425 49.2559 15.125H49.2309C49.6475 14.8417 50.0892 14.6333 50.5559 14.5C51.0225 14.35 51.4725 14.275 51.9059 14.275H57.4309V11.95C57.4309 11.5333 57.2975 11.1583 57.0309 10.825C56.7809 10.475 56.3475 10.3 55.7309 10.3H52.8059C52.1725 10.3 51.7309 10.4583 51.4809 10.775C51.2475 11.075 51.1309 11.4333 51.1309 11.85V12.05C51.1309 12.9167 50.6642 13.35 49.7309 13.35C48.7975 13.35 48.3309 12.9167 48.3309 12.05V11.825C48.3309 11.1417 48.4475 10.5667 48.6809 10.1C48.9309 9.63333 49.2642 9.24167 49.6809 8.925H49.6559C50.0892 8.64167 50.5392 8.40833 51.0059 8.225C51.4892 8.04167 51.9475 7.95 52.3809 7.95H56.1809C56.5975 7.95 57.0392 8.04167 57.5059 8.225C57.9892 8.40833 58.4392 8.64167 58.8559 8.925H58.8309C59.2642 9.24167 59.5975 9.65833 59.8309 10.175C60.0642 10.675 60.1809 11.2583 60.1809 11.925V21.95C60.1809 22.75 59.7225 23.15 58.8059 23.15C58.6225 23.15 58.4475 23.1417 58.2809 23.125C58.1309 23.1083 57.9892 23.0667 57.8559 23C57.7392 22.9167 57.6392 22.8083 57.5559 22.675C57.4892 22.525 57.4559 22.3333 57.4559 22.1L57.4309 16.625H52.3809C52.0142 16.625 51.7309 16.6667 51.5309 16.75C51.3309 16.8333 51.1725 16.9667 51.0559 17.15C50.9225 17.4333 50.8225 17.6583 50.7559 17.825C50.7059 17.975 50.6809 18.15 50.6809 18.35V19.325C50.6809 19.7583 50.8059 20.0917 51.0559 20.325C51.3225 20.5417 51.7725 20.65 52.4059 20.65H55.2059C55.8225 20.65 56.1309 21.0417 56.1309 21.825C56.1309 22.1583 56.0559 22.4417 55.9059 22.675C55.7559 22.8917 55.5225 23 55.2059 23H51.9309ZM66.2646 22.025C66.2646 22.8083 65.8063 23.2 64.8896 23.2C63.9563 23.2 63.4896 22.8083 63.4896 22.025V4.1C63.4896 3.31667 63.9563 2.925 64.8896 2.925C65.8063 2.925 66.2646 3.31667 66.2646 4.1V22.025ZM72.5385 21.95C72.5385 22.75 72.0801 23.15 71.1635 23.15C70.2301 23.15 69.7635 22.75 69.7635 21.95V9.05C69.7635 8.25 70.2301 7.85 71.1635 7.85C72.0801 7.85 72.5385 8.25 72.5385 9.05V21.95ZM73.0635 4.7C73.0635 5.23333 72.8801 5.68333 72.5135 6.05C72.1468 6.41667 71.6968 6.6 71.1635 6.6C70.6301 6.6 70.1718 6.41667 69.7885 6.05C69.4218 5.68333 69.2385 5.23333 69.2385 4.7C69.2385 4.15 69.4218 3.69167 69.7885 3.325C70.1718 2.95833 70.6301 2.775 71.1635 2.775C71.6968 2.775 72.1468 2.95833 72.5135 3.325C72.8801 3.69167 73.0635 4.15 73.0635 4.7ZM78.8623 22.025C78.8623 22.8083 78.404 23.2 77.4873 23.2C76.554 23.2 76.0873 22.8083 76.0873 22.025V4.1C76.0873 3.31667 76.554 2.925 77.4873 2.925C78.404 2.925 78.8623 3.31667 78.8623 4.1V22.025ZM85.0611 19C85.0611 19.4 85.1861 19.775 85.4361 20.125C85.7028 20.475 86.1445 20.65 86.7611 20.65H89.8861C90.5028 20.65 90.9361 20.5 91.1861 20.2C91.4528 19.8833 91.5861 19.525 91.5861 19.125V18.85C91.5861 18.0667 92.0445 17.675 92.9611 17.675C93.8778 17.675 94.3361 18.0667 94.3361 18.85V19.15C94.3361 19.85 94.2195 20.425 93.9861 20.875C93.7695 21.325 93.4361 21.7167 92.9861 22.05C92.1028 22.6833 91.2195 23 90.3361 23H86.1361C85.2528 23 84.3945 22.6833 83.5611 22.05C83.1611 21.7167 82.8528 21.3 82.6361 20.8C82.4195 20.2833 82.3111 19.6917 82.3111 19.025V11.9C82.3111 10.55 82.7278 9.55 83.5611 8.9C83.9778 8.6 84.4028 8.36667 84.8361 8.2C85.2861 8.01667 85.7195 7.925 86.1361 7.925H90.3361C90.7361 7.925 91.1778 8.00833 91.6611 8.175C92.1445 8.325 92.5945 8.53333 93.0111 8.8C93.4111 9.08333 93.7278 9.475 93.9611 9.975C94.2111 10.475 94.3361 11.0667 94.3361 11.75V15.125C94.3361 15.5083 94.2195 15.85 93.9861 16.15C93.7695 16.45 93.3611 16.6 92.7611 16.6H87.3611C86.7611 16.6 86.4445 16.2083 86.4111 15.425C86.4111 14.6417 86.7278 14.25 87.3611 14.25H91.6111L91.5861 11.925C91.5861 11.5083 91.4528 11.1333 91.1861 10.8C90.9361 10.45 90.5028 10.275 89.8861 10.275H86.7611C86.1445 10.275 85.7028 10.45 85.4361 10.8C85.1861 11.1333 85.0611 11.5083 85.0611 11.925V19ZM105.521 7.95C105.954 7.95 106.396 8.04167 106.846 8.225C107.313 8.40833 107.763 8.64167 108.196 8.925H108.171C108.604 9.24167 108.938 9.65833 109.171 10.175C109.404 10.675 109.521 11.2583 109.521 11.925V19.025C109.521 20.3917 109.071 21.4 108.171 22.05C107.288 22.6833 106.404 23 105.521 23H101.521C101.088 23 100.646 22.925 100.196 22.775C99.7461 22.625 99.3044 22.3833 98.8711 22.05C97.9711 21.4167 97.5211 20.4083 97.5211 19.025V11.925C97.5211 11.2583 97.6378 10.675 97.8711 10.175C98.1044 9.65833 98.4378 9.24167 98.8711 8.925H98.8461C99.2628 8.64167 99.7044 8.40833 100.171 8.225C100.638 8.04167 101.088 7.95 101.521 7.95H105.521ZM105.071 20.65C105.688 20.65 106.121 20.475 106.371 20.125C106.638 19.775 106.771 19.4 106.771 19V11.95C106.771 11.5333 106.638 11.1583 106.371 10.825C106.121 10.475 105.688 10.3 105.071 10.3H101.971C101.354 10.3 100.913 10.475 100.646 10.825C100.396 11.1583 100.271 11.5333 100.271 11.95V19C100.271 19.4 100.396 19.775 100.646 20.125C100.913 20.475 101.354 20.65 101.971 20.65H105.071Z" fill="#222222"/>
        <path d="M35.356 35.15C35.5393 35.15 35.7337 35.194 35.939 35.282C36.1517 35.3627 36.3497 35.4653 36.533 35.59H36.522C36.7127 35.7293 36.8593 35.909 36.962 36.129C37.0647 36.349 37.116 36.613 37.116 36.921V37.251C37.116 37.8523 36.918 38.296 36.522 38.582C36.3313 38.7287 36.137 38.835 35.939 38.901C35.741 38.967 35.5467 39 35.356 39H33.486C33.2953 39 33.101 38.967 32.903 38.901C32.705 38.835 32.5107 38.7287 32.32 38.582C31.924 38.3033 31.726 37.8597 31.726 37.251V37.119C31.726 36.8037 31.9277 36.6497 32.331 36.657C32.7417 36.657 32.947 36.811 32.947 37.119V37.24C32.947 37.416 33.002 37.581 33.112 37.735C33.222 37.889 33.4163 37.966 33.695 37.966H35.147C35.4257 37.966 35.62 37.889 35.73 37.735C35.84 37.581 35.895 37.416 35.895 37.24V36.932C35.895 36.8367 35.8803 36.745 35.851 36.657C35.829 36.569 35.7887 36.492 35.73 36.426C35.6713 36.3527 35.5943 36.294 35.499 36.25C35.4037 36.206 35.2863 36.184 35.147 36.184H33.541C33.167 36.184 32.7747 36.052 32.364 35.788C31.9753 35.5387 31.781 35.1097 31.781 34.501V34.127C31.781 33.8337 31.8323 33.577 31.935 33.357C32.0377 33.1297 32.1843 32.9463 32.375 32.807H32.364C32.5473 32.6823 32.7417 32.5797 32.947 32.499C33.1523 32.4183 33.3503 32.378 33.541 32.378H35.301C35.4917 32.378 35.686 32.4183 35.884 32.499C36.0893 32.5797 36.2873 32.6823 36.478 32.807H36.467C36.6577 32.9463 36.8043 33.1297 36.907 33.357C37.0097 33.577 37.061 33.8337 37.061 34.127V34.226C37.061 34.38 37.0097 34.4937 36.907 34.567C36.8043 34.633 36.654 34.6697 36.456 34.677C36.0527 34.6843 35.851 34.534 35.851 34.226V34.138C35.851 33.9547 35.7923 33.7897 35.675 33.643C35.565 33.489 35.3743 33.412 35.103 33.412H33.739C33.4677 33.412 33.2733 33.489 33.156 33.643C33.046 33.7897 32.991 33.9547 32.991 34.138V34.402C32.991 34.5927 33.046 34.765 33.156 34.919C33.2733 35.073 33.4677 35.15 33.739 35.15H35.356ZM39.9896 33.412V37.416C39.9896 37.6067 40.0299 37.7533 40.1106 37.856C40.1912 37.9587 40.3636 38.01 40.6276 38.01H40.9136C41.1996 38.01 41.3352 38.1787 41.3206 38.516C41.3206 38.8607 41.1849 39.033 40.9136 39.033H40.5506C40.3159 39.033 40.0959 39.0037 39.8906 38.945C39.6852 38.879 39.4872 38.7873 39.2966 38.67V38.681C38.9372 38.4463 38.7576 38.0283 38.7576 37.427V33.412H38.3286C38.0646 33.412 37.9252 33.2397 37.9106 32.895C37.9106 32.5503 38.0499 32.378 38.3286 32.378H38.7576V31.201C38.7576 30.849 38.9666 30.673 39.3846 30.673C39.7879 30.673 39.9896 30.849 39.9896 31.201V32.378H40.9026C41.1886 32.378 41.3242 32.5503 41.3096 32.895C41.3096 33.2397 41.1739 33.412 40.9026 33.412H39.9896ZM43.4861 37.24C43.4861 37.416 43.5411 37.581 43.6511 37.735C43.7685 37.889 43.9628 37.966 44.2341 37.966H45.6091C45.8805 37.966 46.0711 37.9 46.1811 37.768C46.2985 37.6287 46.3571 37.471 46.3571 37.295V37.174C46.3571 36.8293 46.5588 36.657 46.9621 36.657C47.3655 36.657 47.5671 36.8293 47.5671 37.174V37.306C47.5671 37.614 47.5158 37.867 47.4131 38.065C47.3178 38.263 47.1711 38.4353 46.9731 38.582C46.5845 38.8607 46.1958 39 45.8071 39H43.9591C43.5705 39 43.1928 38.8607 42.8261 38.582C42.6501 38.4353 42.5145 38.252 42.4191 38.032C42.3238 37.8047 42.2761 37.5443 42.2761 37.251V34.116C42.2761 33.522 42.4595 33.082 42.8261 32.796C43.0095 32.664 43.1965 32.5613 43.3871 32.488C43.5851 32.4073 43.7758 32.367 43.9591 32.367H45.8071C45.9831 32.367 46.1775 32.4037 46.3901 32.477C46.6028 32.543 46.8008 32.6347 46.9841 32.752C47.1601 32.8767 47.2995 33.049 47.4021 33.269C47.5121 33.489 47.5671 33.7493 47.5671 34.05V35.535C47.5671 35.7037 47.5158 35.854 47.4131 35.986C47.3178 36.118 47.1381 36.184 46.8741 36.184H44.4981C44.2341 36.184 44.0948 36.0117 44.0801 35.667C44.0801 35.3223 44.2195 35.15 44.4981 35.15H46.3681L46.3571 34.127C46.3571 33.9437 46.2985 33.7787 46.1811 33.632C46.0711 33.478 45.8805 33.401 45.6091 33.401H44.2341C43.9628 33.401 43.7685 33.478 43.6511 33.632C43.5411 33.7787 43.4861 33.9437 43.4861 34.127V37.24ZM51.1905 39C50.9265 39 50.7872 38.8277 50.7725 38.483C50.7725 38.1383 50.9118 37.966 51.1905 37.966H52.3015C52.5728 37.966 52.7635 37.889 52.8735 37.735C52.9908 37.581 53.0495 37.416 53.0495 37.24V34.138C53.0495 33.9547 52.9908 33.786 52.8735 33.632C52.7635 33.4707 52.5692 33.3973 52.2905 33.412H50.1785V40.023C50.1785 40.3677 49.9768 40.54 49.5735 40.54C49.1702 40.54 48.9685 40.364 48.9685 40.012V33.027C48.9685 32.7703 49.0345 32.598 49.1665 32.51C49.2985 32.422 49.4598 32.378 49.6505 32.378H52.4995C52.6902 32.378 52.8808 32.411 53.0715 32.477C53.2695 32.543 53.4712 32.6347 53.6765 32.752C53.8525 32.8767 53.9918 33.0527 54.0945 33.28C54.2045 33.5 54.2595 33.7603 54.2595 34.061V37.317C54.2595 37.9183 54.0652 38.3473 53.6765 38.604C53.2658 38.868 52.8735 39 52.4995 39H51.1905ZM55.5954 35.205C55.2581 35.205 55.0894 35.0217 55.0894 34.655C55.0967 34.4643 55.1444 34.325 55.2324 34.237C55.3204 34.1417 55.4414 34.094 55.5954 34.094H57.8174C58.1474 34.094 58.3124 34.281 58.3124 34.655C58.3271 35.0217 58.1621 35.205 57.8174 35.205H55.5954ZM60.5122 38.538C60.5122 38.714 60.4499 38.846 60.3252 38.934C60.2006 39.022 60.0649 39.066 59.9182 39.066C59.5149 39.066 59.3132 38.89 59.3132 38.538V30.728C59.3132 30.376 59.5149 30.2 59.9182 30.2C60.3216 30.2 60.5232 30.376 60.5232 30.728V32.378H62.8442C63.2182 32.378 63.6069 32.5173 64.0102 32.796C64.4062 33.0747 64.6042 33.5147 64.6042 34.116V37.394C64.6042 38.0027 64.4246 38.4207 64.0652 38.648C63.7059 38.8827 63.2952 39 62.8332 39H61.5352C61.2712 39 61.1319 38.8277 61.1172 38.483C61.1172 38.1383 61.2566 37.966 61.5352 37.966H62.6352C62.9066 37.966 63.1009 37.9183 63.2182 37.823C63.3356 37.7203 63.3942 37.5737 63.3942 37.383V34.215C63.3942 34.0243 63.3356 33.841 63.2182 33.665L63.2292 33.676C63.1339 33.5 62.9396 33.412 62.6462 33.412H60.5232L60.5122 38.538ZM66.3039 40.54C66.0472 40.54 65.9116 40.3677 65.8969 40.023C65.8969 39.6783 66.0326 39.506 66.3039 39.506H66.7879C67.0446 39.506 67.2132 39.429 67.2939 39.275L67.4479 38.868L67.5029 38.692L65.3579 33.071V33.082C65.2992 32.906 65.3102 32.7557 65.3909 32.631C65.4789 32.5063 65.6109 32.4147 65.7869 32.356C65.9189 32.3193 66.0252 32.301 66.1059 32.301C66.3186 32.301 66.4506 32.4257 66.5019 32.675L67.3709 34.842L68.1079 36.646L69.2849 32.697C69.3509 32.433 69.5049 32.301 69.7469 32.301C69.8056 32.301 69.9009 32.3193 70.0329 32.356C70.2089 32.4073 70.3336 32.4917 70.4069 32.609C70.4876 32.7263 70.5059 32.8657 70.4619 33.027C70.1319 34.149 69.7946 35.2783 69.4499 36.415C69.1126 37.5517 68.7789 38.6773 68.4489 39.792C68.4122 39.8727 68.3536 39.9533 68.2729 40.034C68.1996 40.122 68.1006 40.2027 67.9759 40.276C67.8512 40.3567 67.6972 40.419 67.5139 40.463C67.3306 40.5143 67.1179 40.54 66.8759 40.54H66.3039ZM71.3542 35.205C71.0169 35.205 70.8482 35.0217 70.8482 34.655C70.8555 34.4643 70.9032 34.325 70.9912 34.237C71.0792 34.1417 71.2002 34.094 71.3542 34.094H73.5762C73.9062 34.094 74.0712 34.281 74.0712 34.655C74.0859 35.0217 73.9209 35.205 73.5762 35.205H71.3542ZM78.647 35.15C78.8303 35.15 79.0247 35.194 79.23 35.282C79.4427 35.3627 79.6407 35.4653 79.824 35.59H79.813C80.0037 35.7293 80.1503 35.909 80.253 36.129C80.3557 36.349 80.407 36.613 80.407 36.921V37.251C80.407 37.8523 80.209 38.296 79.813 38.582C79.6223 38.7287 79.428 38.835 79.23 38.901C79.032 38.967 78.8377 39 78.647 39H76.777C76.5863 39 76.392 38.967 76.194 38.901C75.996 38.835 75.8017 38.7287 75.611 38.582C75.215 38.3033 75.017 37.8597 75.017 37.251V37.119C75.017 36.8037 75.2187 36.6497 75.622 36.657C76.0327 36.657 76.238 36.811 76.238 37.119V37.24C76.238 37.416 76.293 37.581 76.403 37.735C76.513 37.889 76.7073 37.966 76.986 37.966H78.438C78.7167 37.966 78.911 37.889 79.021 37.735C79.131 37.581 79.186 37.416 79.186 37.24V36.932C79.186 36.8367 79.1713 36.745 79.142 36.657C79.12 36.569 79.0797 36.492 79.021 36.426C78.9623 36.3527 78.8853 36.294 78.79 36.25C78.6947 36.206 78.5773 36.184 78.438 36.184H76.832C76.458 36.184 76.0657 36.052 75.655 35.788C75.2663 35.5387 75.072 35.1097 75.072 34.501V34.127C75.072 33.8337 75.1233 33.577 75.226 33.357C75.3287 33.1297 75.4753 32.9463 75.666 32.807H75.655C75.8383 32.6823 76.0327 32.5797 76.238 32.499C76.4433 32.4183 76.6413 32.378 76.832 32.378H78.592C78.7827 32.378 78.977 32.4183 79.175 32.499C79.3803 32.5797 79.5783 32.6823 79.769 32.807H79.758C79.9487 32.9463 80.0953 33.1297 80.198 33.357C80.3007 33.577 80.352 33.8337 80.352 34.127V34.226C80.352 34.38 80.3007 34.4937 80.198 34.567C80.0953 34.633 79.945 34.6697 79.747 34.677C79.3437 34.6843 79.142 34.534 79.142 34.226V34.138C79.142 33.9547 79.0833 33.7897 78.966 33.643C78.856 33.489 78.6653 33.412 78.394 33.412H77.03C76.7587 33.412 76.5643 33.489 76.447 33.643C76.337 33.7897 76.282 33.9547 76.282 34.138V34.402C76.282 34.5927 76.337 34.765 76.447 34.919C76.5643 35.073 76.7587 35.15 77.03 35.15H78.647ZM83.2806 33.412V37.416C83.2806 37.6067 83.3209 37.7533 83.4016 37.856C83.4823 37.9587 83.6546 38.01 83.9186 38.01H84.2046C84.4906 38.01 84.6263 38.1787 84.6116 38.516C84.6116 38.8607 84.4759 39.033 84.2046 39.033H83.8416C83.6069 39.033 83.3869 39.0037 83.1816 38.945C82.9763 38.879 82.7783 38.7873 82.5876 38.67V38.681C82.2283 38.4463 82.0486 38.0283 82.0486 37.427V33.412H81.6196C81.3556 33.412 81.2163 33.2397 81.2016 32.895C81.2016 32.5503 81.3409 32.378 81.6196 32.378H82.0486V31.201C82.0486 30.849 82.2576 30.673 82.6756 30.673C83.0789 30.673 83.2806 30.849 83.2806 31.201V32.378H84.1936C84.4796 32.378 84.6153 32.5503 84.6006 32.895C84.6006 33.2397 84.4649 33.412 84.1936 33.412H83.2806ZM86.7771 37.24C86.7771 37.416 86.8321 37.581 86.9421 37.735C87.0595 37.889 87.2538 37.966 87.5251 37.966H88.9001C89.1715 37.966 89.3621 37.9 89.4721 37.768C89.5895 37.6287 89.6481 37.471 89.6481 37.295V37.174C89.6481 36.8293 89.8498 36.657 90.2531 36.657C90.6565 36.657 90.8581 36.8293 90.8581 37.174V37.306C90.8581 37.614 90.8068 37.867 90.7041 38.065C90.6088 38.263 90.4621 38.4353 90.2641 38.582C89.8755 38.8607 89.4868 39 89.0981 39H87.2501C86.8615 39 86.4838 38.8607 86.1171 38.582C85.9411 38.4353 85.8055 38.252 85.7101 38.032C85.6148 37.8047 85.5671 37.5443 85.5671 37.251V34.116C85.5671 33.522 85.7505 33.082 86.1171 32.796C86.3005 32.664 86.4875 32.5613 86.6781 32.488C86.8761 32.4073 87.0668 32.367 87.2501 32.367H89.0981C89.2741 32.367 89.4685 32.4037 89.6811 32.477C89.8938 32.543 90.0918 32.6347 90.2751 32.752C90.4511 32.8767 90.5905 33.049 90.6931 33.269C90.8031 33.489 90.8581 33.7493 90.8581 34.05V35.535C90.8581 35.7037 90.8068 35.854 90.7041 35.986C90.6088 36.118 90.4291 36.184 90.1651 36.184H87.7891C87.5251 36.184 87.3858 36.0117 87.3711 35.667C87.3711 35.3223 87.5105 35.15 87.7891 35.15H89.6591L89.6481 34.127C89.6481 33.9437 89.5895 33.7787 89.4721 33.632C89.3621 33.478 89.1715 33.401 88.9001 33.401H87.5251C87.2538 33.401 87.0595 33.478 86.9421 33.632C86.8321 33.7787 86.7771 33.9437 86.7771 34.127V37.24ZM94.4815 39C94.2175 39 94.0782 38.8277 94.0635 38.483C94.0635 38.1383 94.2028 37.966 94.4815 37.966H95.5925C95.8638 37.966 96.0545 37.889 96.1645 37.735C96.2818 37.581 96.3405 37.416 96.3405 37.24V34.138C96.3405 33.9547 96.2818 33.786 96.1645 33.632C96.0545 33.4707 95.8602 33.3973 95.5815 33.412H93.4695V40.023C93.4695 40.3677 93.2678 40.54 92.8645 40.54C92.4612 40.54 92.2595 40.364 92.2595 40.012V33.027C92.2595 32.7703 92.3255 32.598 92.4575 32.51C92.5895 32.422 92.7508 32.378 92.9415 32.378H95.7905C95.9812 32.378 96.1718 32.411 96.3625 32.477C96.5605 32.543 96.7622 32.6347 96.9675 32.752C97.1435 32.8767 97.2828 33.0527 97.3855 33.28C97.4955 33.5 97.5505 33.7603 97.5505 34.061V37.317C97.5505 37.9183 97.3562 38.3473 96.9675 38.604C96.5568 38.868 96.1645 39 95.7905 39H94.4815ZM103.757 38.538C103.757 38.89 103.552 39.066 103.141 39.066C102.738 39.066 102.536 38.89 102.536 38.538V33.412H102.008C101.744 33.412 101.605 33.2397 101.59 32.895C101.59 32.5503 101.73 32.378 102.008 32.378H102.536V31.85C102.536 31.5493 102.577 31.2963 102.657 31.091C102.745 30.8783 102.885 30.717 103.075 30.607V30.618C103.266 30.5007 103.46 30.409 103.658 30.343C103.864 30.277 104.08 30.244 104.307 30.244H104.571C104.843 30.244 104.978 30.4163 104.978 30.761C104.993 31.1057 104.857 31.278 104.571 31.278H104.395C104.256 31.278 104.142 31.2927 104.054 31.322C103.974 31.344 103.911 31.3807 103.867 31.432C103.823 31.4833 103.794 31.5457 103.779 31.619C103.765 31.6923 103.757 31.773 103.757 31.861V32.378H104.582C104.868 32.378 105.004 32.5503 104.989 32.895C104.989 33.2397 104.854 33.412 104.582 33.412H103.757V38.538ZM107.585 39C107.357 39 107.141 38.9707 106.936 38.912C106.73 38.846 106.532 38.7543 106.342 38.637V38.648C105.982 38.4207 105.803 38.0027 105.803 37.394V36.855C105.803 36.5543 105.854 36.294 105.957 36.074C106.067 35.8467 106.217 35.667 106.408 35.535H106.397C106.58 35.4103 106.774 35.3187 106.98 35.26C107.185 35.194 107.383 35.161 107.574 35.161H110.005V34.138C110.005 33.9547 109.946 33.7897 109.829 33.643C109.719 33.489 109.528 33.412 109.257 33.412H107.97C107.691 33.412 107.497 33.4817 107.387 33.621C107.284 33.753 107.233 33.9107 107.233 34.094V34.182C107.233 34.5633 107.027 34.754 106.617 34.754C106.206 34.754 106.001 34.5633 106.001 34.182V34.083C106.001 33.7823 106.052 33.5293 106.155 33.324C106.265 33.1187 106.411 32.9463 106.595 32.807H106.584C106.774 32.6823 106.972 32.5797 107.178 32.499C107.39 32.4183 107.592 32.378 107.783 32.378H109.455C109.638 32.378 109.832 32.4183 110.038 32.499C110.25 32.5797 110.448 32.6823 110.632 32.807H110.621C110.811 32.9463 110.958 33.1297 111.061 33.357C111.163 33.577 111.215 33.8337 111.215 34.127V38.538C111.215 38.89 111.013 39.066 110.61 39.066C110.529 39.066 110.452 39.0623 110.379 39.055C110.313 39.0477 110.25 39.0293 110.192 39C110.14 38.9633 110.096 38.9157 110.06 38.857C110.03 38.791 110.016 38.7067 110.016 38.604L110.005 36.195H107.783C107.621 36.195 107.497 36.2133 107.409 36.25C107.321 36.2867 107.251 36.3453 107.2 36.426C107.141 36.5507 107.097 36.6497 107.068 36.723C107.046 36.789 107.035 36.866 107.035 36.954V37.383C107.035 37.5737 107.09 37.7203 107.2 37.823C107.317 37.9183 107.515 37.966 107.794 37.966H109.026C109.297 37.966 109.433 38.1383 109.433 38.483C109.433 38.6297 109.4 38.7543 109.334 38.857C109.268 38.9523 109.165 39 109.026 39H107.585ZM117.928 37.251C117.928 37.8523 117.73 38.296 117.334 38.582C116.946 38.8607 116.557 39 116.168 39H114.32C113.932 39 113.554 38.8607 113.187 38.582C113.011 38.4353 112.876 38.252 112.78 38.032C112.685 37.8047 112.637 37.5443 112.637 37.251V34.116C112.637 33.522 112.821 33.082 113.187 32.796C113.371 32.664 113.558 32.5613 113.748 32.488C113.946 32.4073 114.137 32.367 114.32 32.367H116.168C116.344 32.367 116.539 32.4037 116.751 32.477C116.964 32.543 117.162 32.6347 117.345 32.752C117.521 32.8767 117.661 33.049 117.763 33.269C117.873 33.489 117.928 33.7493 117.928 34.05V34.6C117.928 34.952 117.727 35.128 117.323 35.128C116.92 35.128 116.718 34.952 116.718 34.6V34.127C116.718 33.9437 116.66 33.7787 116.542 33.632C116.432 33.478 116.242 33.401 115.97 33.401H114.595C114.324 33.401 114.13 33.478 114.012 33.632C113.902 33.7787 113.847 33.9437 113.847 34.127V37.24C113.847 37.416 113.902 37.581 114.012 37.735C114.13 37.889 114.324 37.966 114.595 37.966H115.97C116.242 37.966 116.432 37.889 116.542 37.735C116.66 37.581 116.718 37.416 116.718 37.24V36.734C116.718 36.3893 116.92 36.217 117.323 36.217C117.727 36.217 117.928 36.3893 117.928 36.734V37.251ZM120.749 33.412V37.416C120.749 37.6067 120.79 37.7533 120.87 37.856C120.951 37.9587 121.123 38.01 121.387 38.01H121.673C121.959 38.01 122.095 38.1787 122.08 38.516C122.08 38.8607 121.945 39.033 121.673 39.033H121.31C121.076 39.033 120.856 39.0037 120.65 38.945C120.445 38.879 120.247 38.7873 120.056 38.67V38.681C119.697 38.4463 119.517 38.0283 119.517 37.427V33.412H119.088C118.824 33.412 118.685 33.2397 118.67 32.895C118.67 32.5503 118.81 32.378 119.088 32.378H119.517V31.201C119.517 30.849 119.726 30.673 120.144 30.673C120.548 30.673 120.749 30.849 120.749 31.201V32.378H121.662C121.948 32.378 122.084 32.5503 122.069 32.895C122.069 33.2397 121.934 33.412 121.662 33.412H120.749ZM131.625 37.251C131.625 37.8523 131.427 38.296 131.031 38.582C130.642 38.8607 130.253 39 129.865 39H128.017C127.628 39 127.25 38.8607 126.884 38.582C126.708 38.4353 126.572 38.252 126.477 38.032C126.381 37.8047 126.334 37.5443 126.334 37.251V34.116C126.334 33.522 126.517 33.082 126.884 32.796C127.067 32.664 127.254 32.5613 127.445 32.488C127.643 32.4073 127.833 32.367 128.017 32.367H129.865C130.041 32.367 130.235 32.4037 130.448 32.477C130.66 32.543 130.858 32.6347 131.042 32.752C131.218 32.8767 131.357 33.049 131.46 33.269C131.57 33.489 131.625 33.7493 131.625 34.05V34.6C131.625 34.952 131.423 35.128 131.02 35.128C130.616 35.128 130.415 34.952 130.415 34.6V34.127C130.415 33.9437 130.356 33.7787 130.239 33.632C130.129 33.478 129.938 33.401 129.667 33.401H128.292C128.02 33.401 127.826 33.478 127.709 33.632C127.599 33.7787 127.544 33.9437 127.544 34.127V37.24C127.544 37.416 127.599 37.581 127.709 37.735C127.826 37.889 128.02 37.966 128.292 37.966H129.667C129.938 37.966 130.129 37.889 130.239 37.735C130.356 37.581 130.415 37.416 130.415 37.24V36.734C130.415 36.3893 130.616 36.217 131.02 36.217C131.423 36.217 131.625 36.3893 131.625 36.734V37.251ZM134.215 38.538C134.215 38.89 134.013 39.066 133.61 39.066C133.206 39.066 133.005 38.89 133.005 38.538V30.728C133.005 30.376 133.206 30.2 133.61 30.2C134.013 30.2 134.215 30.376 134.215 30.728V32.378H136.536C136.91 32.378 137.298 32.5173 137.702 32.796C138.098 33.0747 138.296 33.5147 138.296 34.116V38.538C138.296 38.89 138.094 39.066 137.691 39.066C137.287 39.066 137.086 38.89 137.086 38.538V34.215C137.086 34.0243 137.027 33.841 136.91 33.665L136.921 33.676C136.825 33.5 136.631 33.412 136.338 33.412H134.215V38.538ZM140.961 37.24C140.961 37.416 141.016 37.581 141.126 37.735C141.243 37.889 141.437 37.966 141.709 37.966H143.084C143.355 37.966 143.546 37.9 143.656 37.768C143.773 37.6287 143.832 37.471 143.832 37.295V37.174C143.832 36.8293 144.033 36.657 144.437 36.657C144.84 36.657 145.042 36.8293 145.042 37.174V37.306C145.042 37.614 144.99 37.867 144.888 38.065C144.792 38.263 144.646 38.4353 144.448 38.582C144.059 38.8607 143.67 39 143.282 39H141.434C141.045 39 140.667 38.8607 140.301 38.582C140.125 38.4353 139.989 38.252 139.894 38.032C139.798 37.8047 139.751 37.5443 139.751 37.251V34.116C139.751 33.522 139.934 33.082 140.301 32.796C140.484 32.664 140.671 32.5613 140.862 32.488C141.06 32.4073 141.25 32.367 141.434 32.367H143.282C143.458 32.367 143.652 32.4037 143.865 32.477C144.077 32.543 144.275 32.6347 144.459 32.752C144.635 32.8767 144.774 33.049 144.877 33.269C144.987 33.489 145.042 33.7493 145.042 34.05V35.535C145.042 35.7037 144.99 35.854 144.888 35.986C144.792 36.118 144.613 36.184 144.349 36.184H141.973C141.709 36.184 141.569 36.0117 141.555 35.667C141.555 35.3223 141.694 35.15 141.973 35.15H143.843L143.832 34.127C143.832 33.9437 143.773 33.7787 143.656 33.632C143.546 33.478 143.355 33.401 143.084 33.401H141.709C141.437 33.401 141.243 33.478 141.126 33.632C141.016 33.7787 140.961 33.9437 140.961 34.127V37.24ZM151.734 37.251C151.734 37.8523 151.536 38.296 151.14 38.582C150.751 38.8607 150.363 39 149.974 39H148.126C147.737 39 147.36 38.8607 146.993 38.582C146.817 38.4353 146.681 38.252 146.586 38.032C146.491 37.8047 146.443 37.5443 146.443 37.251V34.116C146.443 33.522 146.626 33.082 146.993 32.796C147.176 32.664 147.363 32.5613 147.554 32.488C147.752 32.4073 147.943 32.367 148.126 32.367H149.974C150.15 32.367 150.344 32.4037 150.557 32.477C150.77 32.543 150.968 32.6347 151.151 32.752C151.327 32.8767 151.466 33.049 151.569 33.269C151.679 33.489 151.734 33.7493 151.734 34.05V34.6C151.734 34.952 151.532 35.128 151.129 35.128C150.726 35.128 150.524 34.952 150.524 34.6V34.127C150.524 33.9437 150.465 33.7787 150.348 33.632C150.238 33.478 150.047 33.401 149.776 33.401H148.401C148.13 33.401 147.935 33.478 147.818 33.632C147.708 33.7787 147.653 33.9437 147.653 34.127V37.24C147.653 37.416 147.708 37.581 147.818 37.735C147.935 37.889 148.13 37.966 148.401 37.966H149.776C150.047 37.966 150.238 37.889 150.348 37.735C150.465 37.581 150.524 37.416 150.524 37.24V36.734C150.524 36.3893 150.726 36.217 151.129 36.217C151.532 36.217 151.734 36.3893 151.734 36.734V37.251ZM154.324 37.163V38.56C154.324 38.9047 154.122 39.077 153.719 39.077C153.316 39.077 153.114 38.9047 153.114 38.56V30.728C153.114 30.376 153.316 30.2 153.719 30.2C154.122 30.2 154.324 30.376 154.324 30.728V35.392C154.507 35.172 154.709 34.9373 154.929 34.688C155.156 34.4313 155.38 34.1747 155.6 33.918C155.827 33.654 156.051 33.3973 156.271 33.148C156.491 32.8913 156.696 32.653 156.887 32.433V32.444C157.019 32.29 157.151 32.213 157.283 32.213C157.356 32.213 157.426 32.2313 157.492 32.268C157.565 32.2973 157.642 32.3413 157.723 32.4H157.712C157.888 32.5467 157.976 32.6933 157.976 32.84C157.976 32.8913 157.965 32.95 157.943 33.016C157.921 33.0747 157.884 33.126 157.833 33.17L154.324 37.163ZM157.998 38.263C158.049 38.3583 158.075 38.4573 158.075 38.56C158.075 38.7507 157.965 38.8937 157.745 38.989C157.598 39.077 157.466 39.121 157.349 39.121C157.268 39.121 157.191 39.0917 157.118 39.033C157.045 38.9817 156.986 38.9157 156.942 38.835L155.842 36.712C155.776 36.602 155.743 36.492 155.743 36.382C155.743 36.1987 155.838 36.0447 156.029 35.92C156.08 35.8833 156.132 35.8503 156.183 35.821C156.242 35.7917 156.304 35.7697 156.37 35.755C156.451 35.7403 156.528 35.755 156.601 35.799C156.674 35.843 156.737 35.9017 156.788 35.975L157.998 38.263ZM160.222 38.538C160.222 38.89 160.021 39.066 159.617 39.066C159.207 39.066 159.001 38.89 159.001 38.538V32.862C159.001 32.51 159.207 32.334 159.617 32.334C160.021 32.334 160.222 32.51 160.222 32.862V38.538ZM160.453 30.948C160.453 31.1827 160.373 31.3807 160.211 31.542C160.05 31.7033 159.852 31.784 159.617 31.784C159.383 31.784 159.181 31.7033 159.012 31.542C158.851 31.3807 158.77 31.1827 158.77 30.948C158.77 30.706 158.851 30.5043 159.012 30.343C159.181 30.1817 159.383 30.101 159.617 30.101C159.852 30.101 160.05 30.1817 160.211 30.343C160.373 30.5043 160.453 30.706 160.453 30.948ZM162.961 38.538C162.961 38.89 162.759 39.066 162.356 39.066C161.952 39.066 161.751 38.89 161.751 38.538V34.116C161.751 33.8153 161.798 33.555 161.894 33.335C161.989 33.115 162.139 32.9353 162.345 32.796C162.733 32.5173 163.122 32.378 163.511 32.378H165.282C165.656 32.378 166.044 32.5173 166.448 32.796C166.844 33.0747 167.042 33.5147 167.042 34.116V38.538C167.042 38.89 166.84 39.066 166.437 39.066C166.033 39.066 165.832 38.89 165.832 38.538V34.215C165.832 34.0243 165.773 33.841 165.656 33.665L165.667 33.676C165.571 33.5 165.377 33.412 165.084 33.412H163.709C163.408 33.412 163.21 33.5 163.115 33.676C163.012 33.83 162.961 34.0097 162.961 34.215V38.538ZM170.236 38.23C170.045 38.23 169.847 38.197 169.642 38.131C169.444 38.065 169.249 37.9697 169.059 37.845C168.663 37.5883 168.465 37.1557 168.465 36.547V34.061C168.465 33.753 168.516 33.489 168.619 33.269C168.729 33.049 168.875 32.8767 169.059 32.752C169.249 32.6347 169.444 32.543 169.642 32.477C169.84 32.411 170.034 32.378 170.225 32.378H172.073C172.256 32.378 172.447 32.4183 172.645 32.499C172.843 32.5797 173.026 32.6823 173.195 32.807C173.363 32.9463 173.499 33.1297 173.602 33.357C173.704 33.5843 173.756 33.841 173.756 34.127V38.791C173.756 39.099 173.704 39.3593 173.602 39.572C173.506 39.792 173.371 39.9753 173.195 40.122C173.026 40.2613 172.843 40.3677 172.645 40.441C172.454 40.5217 172.263 40.562 172.073 40.562H170.225C169.836 40.562 169.444 40.4483 169.048 40.221C168.842 40.1037 168.692 39.9533 168.597 39.77C168.509 39.5867 168.465 39.374 168.465 39.132V39C168.465 38.8533 168.512 38.736 168.608 38.648C168.703 38.56 168.853 38.516 169.059 38.516C169.469 38.56 169.675 38.7213 169.675 39V39.121C169.675 39.2017 169.73 39.2897 169.84 39.385C169.957 39.4803 170.151 39.528 170.423 39.528H171.798C172.069 39.528 172.26 39.451 172.37 39.297C172.487 39.143 172.546 38.9707 172.546 38.78V34.138C172.546 33.9547 172.487 33.7897 172.37 33.643C172.26 33.489 172.069 33.412 171.798 33.412H170.423C170.151 33.412 169.957 33.489 169.84 33.643C169.73 33.7897 169.675 33.9547 169.675 34.138V36.459C169.675 36.6423 169.73 36.8147 169.84 36.976C169.957 37.13 170.151 37.207 170.423 37.207H171.567C171.831 37.207 171.963 37.3757 171.963 37.713C171.963 37.867 171.93 37.9917 171.864 38.087C171.805 38.1823 171.706 38.23 171.567 38.23H170.236ZM180.059 38.538C180.059 38.89 179.854 39.066 179.443 39.066C179.04 39.066 178.838 38.89 178.838 38.538V33.412H178.31C178.046 33.412 177.907 33.2397 177.892 32.895C177.892 32.5503 178.031 32.378 178.31 32.378H178.838V31.85C178.838 31.5493 178.878 31.2963 178.959 31.091C179.047 30.8783 179.186 30.717 179.377 30.607V30.618C179.568 30.5007 179.762 30.409 179.96 30.343C180.165 30.277 180.382 30.244 180.609 30.244H180.873C181.144 30.244 181.28 30.4163 181.28 30.761C181.295 31.1057 181.159 31.278 180.873 31.278H180.697C180.558 31.278 180.444 31.2927 180.356 31.322C180.275 31.344 180.213 31.3807 180.169 31.432C180.125 31.4833 180.096 31.5457 180.081 31.619C180.066 31.6923 180.059 31.773 180.059 31.861V32.378H180.884C181.17 32.378 181.306 32.5503 181.291 32.895C181.291 33.2397 181.155 33.412 180.884 33.412H180.059V38.538ZM185.745 32.378C185.936 32.378 186.13 32.4183 186.328 32.499C186.534 32.5797 186.732 32.6823 186.922 32.807H186.911C187.102 32.9463 187.249 33.1297 187.351 33.357C187.454 33.577 187.505 33.8337 187.505 34.127V37.251C187.505 37.8523 187.307 38.296 186.911 38.582C186.523 38.8607 186.134 39 185.745 39H183.985C183.795 39 183.6 38.967 183.402 38.901C183.204 38.835 183.01 38.7287 182.819 38.582C182.423 38.3033 182.225 37.8597 182.225 37.251V34.127C182.225 33.8337 182.277 33.577 182.379 33.357C182.482 33.1297 182.629 32.9463 182.819 32.807H182.808C182.992 32.6823 183.186 32.5797 183.391 32.499C183.597 32.4183 183.795 32.378 183.985 32.378H185.745ZM185.547 37.966C185.819 37.966 186.009 37.889 186.119 37.735C186.237 37.581 186.295 37.416 186.295 37.24V34.138C186.295 33.9547 186.237 33.7897 186.119 33.643C186.009 33.489 185.819 33.412 185.547 33.412H184.183C183.912 33.412 183.718 33.489 183.6 33.643C183.49 33.7897 183.435 33.9547 183.435 34.138V37.24C183.435 37.416 183.49 37.581 183.6 37.735C183.718 37.889 183.912 37.966 184.183 37.966H185.547ZM190.084 38.538C190.084 38.89 189.883 39.066 189.479 39.066C189.061 39.066 188.852 38.89 188.852 38.538V33.984C188.852 33.3827 189.032 32.9647 189.391 32.73C189.751 32.4953 190.165 32.378 190.634 32.378H191.888C192.16 32.378 192.295 32.5503 192.295 32.895C192.31 33.2397 192.174 33.412 191.888 33.412H190.722C190.458 33.412 190.286 33.4633 190.205 33.566C190.125 33.6687 190.084 33.8117 190.084 33.995V38.538ZM198.745 39C198.481 39 198.342 38.8277 198.327 38.483C198.327 38.1383 198.467 37.966 198.745 37.966H199.856C200.128 37.966 200.318 37.889 200.428 37.735C200.546 37.581 200.604 37.416 200.604 37.24V34.138C200.604 33.9547 200.546 33.786 200.428 33.632C200.318 33.4707 200.124 33.3973 199.845 33.412H197.733V40.023C197.733 40.3677 197.532 40.54 197.128 40.54C196.725 40.54 196.523 40.364 196.523 40.012V33.027C196.523 32.7703 196.589 32.598 196.721 32.51C196.853 32.422 197.015 32.378 197.205 32.378H200.054C200.245 32.378 200.436 32.411 200.626 32.477C200.824 32.543 201.026 32.6347 201.231 32.752C201.407 32.8767 201.547 33.0527 201.649 33.28C201.759 33.5 201.814 33.7603 201.814 34.061V37.317C201.814 37.9183 201.62 38.3473 201.231 38.604C200.821 38.868 200.428 39 200.054 39H198.745ZM204.382 38.538C204.382 38.89 204.18 39.066 203.777 39.066C203.359 39.066 203.15 38.89 203.15 38.538V33.984C203.15 33.3827 203.33 32.9647 203.689 32.73C204.048 32.4953 204.463 32.378 204.932 32.378H206.186C206.457 32.378 206.593 32.5503 206.593 32.895C206.608 33.2397 206.472 33.412 206.186 33.412H205.02C204.756 33.412 204.584 33.4633 204.503 33.566C204.422 33.6687 204.382 33.8117 204.382 33.995V38.538ZM211.043 32.378C211.234 32.378 211.428 32.4183 211.626 32.499C211.832 32.5797 212.03 32.6823 212.22 32.807H212.209C212.4 32.9463 212.547 33.1297 212.649 33.357C212.752 33.577 212.803 33.8337 212.803 34.127V37.251C212.803 37.8523 212.605 38.296 212.209 38.582C211.821 38.8607 211.432 39 211.043 39H209.283C209.093 39 208.898 38.967 208.7 38.901C208.502 38.835 208.308 38.7287 208.117 38.582C207.721 38.3033 207.523 37.8597 207.523 37.251V34.127C207.523 33.8337 207.575 33.577 207.677 33.357C207.78 33.1297 207.927 32.9463 208.117 32.807H208.106C208.29 32.6823 208.484 32.5797 208.689 32.499C208.895 32.4183 209.093 32.378 209.283 32.378H211.043ZM210.845 37.966C211.117 37.966 211.307 37.889 211.417 37.735C211.535 37.581 211.593 37.416 211.593 37.24V34.138C211.593 33.9547 211.535 33.7897 211.417 33.643C211.307 33.489 211.117 33.412 210.845 33.412H209.481C209.21 33.412 209.016 33.489 208.898 33.643C208.788 33.7897 208.733 33.9547 208.733 34.138V37.24C208.733 37.416 208.788 37.581 208.898 37.735C209.016 37.889 209.21 37.966 209.481 37.966H210.845ZM217.769 35.15C217.952 35.15 218.147 35.194 218.352 35.282C218.565 35.3627 218.763 35.4653 218.946 35.59H218.935C219.126 35.7293 219.272 35.909 219.375 36.129C219.478 36.349 219.529 36.613 219.529 36.921V37.251C219.529 37.8523 219.331 38.296 218.935 38.582C218.744 38.7287 218.55 38.835 218.352 38.901C218.154 38.967 217.96 39 217.769 39H215.899C215.708 39 215.514 38.967 215.316 38.901C215.118 38.835 214.924 38.7287 214.733 38.582C214.337 38.3033 214.139 37.8597 214.139 37.251V37.119C214.139 36.8037 214.341 36.6497 214.744 36.657C215.155 36.657 215.36 36.811 215.36 37.119V37.24C215.36 37.416 215.415 37.581 215.525 37.735C215.635 37.889 215.829 37.966 216.108 37.966H217.56C217.839 37.966 218.033 37.889 218.143 37.735C218.253 37.581 218.308 37.416 218.308 37.24V36.932C218.308 36.8367 218.293 36.745 218.264 36.657C218.242 36.569 218.202 36.492 218.143 36.426C218.084 36.3527 218.007 36.294 217.912 36.25C217.817 36.206 217.699 36.184 217.56 36.184H215.954C215.58 36.184 215.188 36.052 214.777 35.788C214.388 35.5387 214.194 35.1097 214.194 34.501V34.127C214.194 33.8337 214.245 33.577 214.348 33.357C214.451 33.1297 214.597 32.9463 214.788 32.807H214.777C214.96 32.6823 215.155 32.5797 215.36 32.499C215.565 32.4183 215.763 32.378 215.954 32.378H217.714C217.905 32.378 218.099 32.4183 218.297 32.499C218.502 32.5797 218.7 32.6823 218.891 32.807H218.88C219.071 32.9463 219.217 33.1297 219.32 33.357C219.423 33.577 219.474 33.8337 219.474 34.127V34.226C219.474 34.38 219.423 34.4937 219.32 34.567C219.217 34.633 219.067 34.6697 218.869 34.677C218.466 34.6843 218.264 34.534 218.264 34.226V34.138C218.264 33.9547 218.205 33.7897 218.088 33.643C217.978 33.489 217.787 33.412 217.516 33.412H216.152C215.881 33.412 215.686 33.489 215.569 33.643C215.459 33.7897 215.404 33.9547 215.404 34.138V34.402C215.404 34.5927 215.459 34.765 215.569 34.919C215.686 35.073 215.881 35.15 216.152 35.15H217.769Z" fill="#A7A7A7"/>
        <path d="M2.74167 9.07735L13 3.1547L23.2583 9.07735V20.9226L13 26.8453L2.74167 20.9226V9.07735Z" fill="#1943EF" stroke="white" stroke-width="2"/>
        <path d="M2.74167 18.0774L13 12.1547L23.2583 18.0774V29.9226L13 35.8453L2.74167 29.9226V18.0774Z" fill="#EF6B3C" stroke="white" stroke-width="2"/>
        </svg>