<?xml version="1.0" standalone="no"?>
<!DOCTYPE svg PUBLIC "-//W3C//DTD SVG 20010904//EN"
 "http://www.w3.org/TR/2001/REC-SVG-20010904/DTD/svg10.dtd">
<svg version="1.0" xmlns="http://www.w3.org/2000/svg"
 width="442.000000pt" height="82.000000pt" viewBox="0 0 442.000000 82.000000"
 preserveAspectRatio="xMidYMid meet">
<metadata>
Created by potrace 1.16, written by Peter Selinger 2001-2019
</metadata>
<g transform="translate(0.000000,82.000000) scale(0.100000,-0.100000)"
fill="#000000" stroke="none">
<path d="M123 779 c-31 -16 -45 -61 -31 -100 8 -23 23 -36 64 -54 57 -25 63
-35 39 -55 -19 -15 -52 -4 -60 21 -4 10 -15 19 -26 19 -17 0 -20 -6 -17 -37 3
-36 6 -39 45 -47 61 -13 117 16 121 63 6 60 -4 77 -63 105 -56 26 -68 42 -38
53 11 4 24 -3 39 -22 30 -38 58 -29 49 17 -4 18 -9 35 -11 37 -9 9 -92 9 -111
0z"/>
<path d="M1280 769 c0 -9 7 -19 15 -23 12 -4 15 -24 15 -92 0 -77 -2 -86 -20
-91 -11 -3 -20 -12 -20 -19 0 -11 25 -14 125 -14 l125 0 0 40 c0 46 -20 54
-48 20 -10 -11 -32 -21 -52 -22 l-35 -3 -3 88 c-3 82 -1 89 18 94 11 3 20 13
20 22 0 15 -11 17 -70 17 -58 -1 -70 -4 -70 -17z"/>
<path d="M1703 778 c-23 -11 -32 -38 -13 -38 6 0 10 -33 10 -80 0 -67 -3 -80
-16 -80 -12 0 -15 6 -10 23 3 13 1 40 -5 60 -9 35 -12 37 -53 37 -46 0 -96
-34 -96 -65 0 -25 42 -17 67 13 20 24 22 25 23 7 0 -13 -13 -27 -38 -40 -29
-16 -38 -27 -40 -52 -3 -33 4 -39 48 -35 66 7 121 5 124 -3 2 -6 10 -6 22 1
12 7 28 8 43 2 31 -11 86 7 106 35 21 31 19 80 -6 112 -19 23 -28 26 -65 23
l-44 -3 0 47 c0 52 -11 58 -57 36z"/>
<path d="M2098 777 c-27 -11 -37 -32 -18 -39 15 -5 25 -164 10 -173 -7 -4 -16
-2 -20 4 -4 7 -23 11 -44 9 -30 -2 -41 2 -53 20 -15 22 -15 22 41 22 63 0 70
10 35 54 -28 36 -89 37 -124 1 -52 -51 -18 -155 50 -155 14 0 41 7 60 14 19 8
35 11 35 5 0 -5 25 -9 55 -9 32 0 55 4 55 11 0 5 10 3 22 -5 28 -20 59 -20
103 -2 51 22 47 48 -6 44 -34 -2 -44 1 -56 20 -15 22 -15 22 41 22 63 0 70 10
35 54 -29 36 -89 37 -125 0 -22 -21 -25 -32 -22 -70 2 -26 -1 -43 -7 -41 -6 2
-11 52 -13 115 -3 119 -3 119 -54 99z"/>
<path d="M2473 783 c-22 -4 -33 -33 -13 -33 6 0 10 -11 10 -25 0 -22 -4 -25
-35 -25 -25 0 -44 -8 -62 -26 -22 -22 -25 -32 -20 -71 7 -66 22 -76 111 -76
87 -1 110 11 82 42 -14 15 -17 34 -16 78 1 32 2 77 1 101 -1 44 -3 46 -58 35z"/>
<path d="M3738 777 c-26 -10 -39 -37 -19 -37 12 0 26 -144 16 -167 -5 -12 -9
-14 -12 -5 -3 6 -12 12 -20 12 -11 0 -14 7 -9 23 3 13 1 40 -5 60 -9 35 -12
37 -53 37 -46 0 -96 -34 -96 -65 0 -25 42 -17 67 13 20 24 22 25 23 7 0 -13
-13 -27 -38 -40 -29 -16 -38 -27 -40 -52 -3 -33 5 -39 48 -34 8 0 84 1 168 1
117 -1 152 2 152 12 0 9 3 8 10 -2 11 -18 103 -21 120 -4 7 7 12 23 11 35 -1
79 -3 94 -12 111 -7 13 -21 18 -53 18 -52 0 -68 -16 -71 -68 -1 -20 -3 -45 -4
-54 0 -10 -8 -18 -16 -18 -12 0 -15 15 -15 75 0 68 -2 75 -19 75 -11 0 -23 -4
-26 -10 -3 -5 -15 -10 -26 -10 -22 0 -26 -25 -4 -34 10 -4 15 -20 15 -51 0
-39 -3 -46 -17 -43 -16 3 -18 18 -21 116 -3 119 -3 119 -54 99z"/>
<path d="M2640 765 c0 -8 9 -15 20 -15 19 0 20 -7 20 -130 0 -127 0 -130 -20
-118 -26 17 -55 -9 -45 -41 5 -17 14 -21 45 -21 30 0 43 6 64 31 25 29 26 36
26 155 0 104 2 124 15 124 8 0 15 7 15 15 0 12 -14 15 -70 15 -56 0 -70 -3
-70 -15z"/>
<path d="M691 689 c-21 -17 -23 -23 -13 -40 7 -10 12 -35 12 -55 0 -29 -3 -35
-16 -30 -9 3 -20 6 -25 6 -5 0 -9 29 -9 65 l0 65 -40 0 c-33 0 -40 -3 -40 -20
0 -11 5 -20 10 -20 16 0 12 -76 -5 -90 -19 -16 -23 -4 -27 70 l-3 55 -40 0
c-30 0 -41 -4 -43 -17 -2 -11 3 -18 12 -18 13 0 16 -12 16 -60 0 -73 10 -80
100 -74 36 2 95 4 133 3 54 0 67 3 67 15 0 9 -7 16 -15 16 -11 0 -15 11 -15
40 0 36 3 40 25 40 21 0 25 5 25 30 0 24 -4 30 -22 30 -13 0 -32 2 -43 5 -12
3 -30 -4 -44 -16z"/>
<path d="M3201 689 c-21 -17 -23 -23 -13 -40 7 -10 12 -34 12 -53 0 -29 -3
-33 -20 -29 -17 5 -20 14 -20 69 l0 64 -40 0 c-33 0 -40 -3 -40 -20 0 -11 5
-20 10 -20 16 0 12 -76 -5 -90 -19 -16 -23 -4 -27 70 l-3 55 -40 0 c-30 0 -41
-4 -43 -17 -2 -11 3 -18 12 -18 13 0 16 -12 16 -60 0 -71 9 -79 90 -75 30 1
88 3 128 4 57 1 72 4 72 16 0 8 -7 15 -15 15 -11 0 -15 11 -15 40 0 36 3 40
25 40 21 0 25 5 25 30 0 24 -4 30 -22 30 -13 0 -32 2 -43 5 -12 3 -30 -4 -44
-16z"/>
<path d="M3348 692 c-31 -19 -36 -37 -13 -46 10 -3 15 -19 15 -46 0 -29 -4
-40 -15 -40 -8 0 -15 -7 -15 -15 0 -12 19 -15 110 -15 91 0 110 3 110 15 0 8
-4 15 -10 15 -5 0 -10 19 -10 43 0 23 -6 53 -13 67 -11 21 -20 25 -55 25 -23
0 -42 3 -42 8 0 12 -33 6 -62 -11z"/>
<path d="M4098 691 c-31 -18 -36 -36 -13 -45 10 -3 15 -19 15 -46 0 -29 -4
-40 -15 -40 -8 0 -15 -7 -15 -15 0 -12 19 -15 110 -15 91 0 110 3 110 15 0 8
-4 15 -10 15 -5 0 -10 20 -10 45 0 48 23 72 41 44 12 -19 11 -89 -1 -89 -5 0
-10 -7 -10 -15 0 -11 12 -15 50 -15 38 0 50 4 50 15 0 8 -4 15 -9 15 -5 0 -11
24 -13 54 -3 30 -10 62 -17 70 -15 18 -86 22 -96 6 -4 -7 -11 -7 -18 -2 -24
19 -120 21 -149 3z"/>
<path d="M295 675 c-25 -24 -33 -73 -19 -110 9 -22 57 -45 94 -45 37 0 90 47
90 79 0 30 -19 73 -38 87 -30 23 -100 17 -127 -11z"/>
<path d="M829 671 c-35 -36 -40 -90 -10 -120 44 -44 142 -33 149 17 4 25 -6
27 -44 10 -23 -11 -28 -10 -45 11 -23 28 -24 45 -3 66 15 15 18 14 36 -5 23
-24 51 -23 56 3 6 30 -17 47 -65 47 -36 0 -50 -6 -74 -29z"/>
<path d="M1005 675 c-52 -51 -18 -155 50 -155 38 0 95 27 95 44 0 13 12 16 60
16 l60 0 0 30 c0 30 0 30 -58 30 -53 0 -60 3 -80 30 -30 40 -90 43 -127 5z"/>
<path d="M2805 675 c-25 -24 -33 -73 -19 -110 9 -22 57 -45 94 -45 37 0 90 47
90 79 0 30 -19 73 -38 87 -30 23 -100 17 -127 -11z"/>
</g>
</svg>
